<mxfile host="app.diagrams.net" modified="2023-08-27T07:54:23.905Z" agent="Mozilla/5.0 (Windows NT 10.0; Win64; x64) AppleWebKit/537.36 (KHTML, like Gecko) Chrome/116.0.0.0 Safari/537.36" etag="VgHRsYcfe04RpGIgnRXD" version="21.6.9" type="device">
  <diagram name="Page-1" id="6A_0Kko7Fqr__mQ_uQNB">
    <mxGraphModel dx="4555" dy="1150" grid="1" gridSize="10" guides="1" tooltips="1" connect="1" arrows="1" fold="1" page="1" pageScale="1" pageWidth="827" pageHeight="1169" math="0" shadow="0">
      <root>
        <mxCell id="0" />
        <mxCell id="1" parent="0" />
        <mxCell id="L_stRkB2zpMGK9rm2e4r-1" style="rounded=0;orthogonalLoop=1;jettySize=auto;html=1;exitX=0;exitY=1;exitDx=0;exitDy=0;" edge="1" parent="1" source="L_stRkB2zpMGK9rm2e4r-3" target="L_stRkB2zpMGK9rm2e4r-5">
          <mxGeometry relative="1" as="geometry">
            <mxPoint x="163.57142857142856" y="470" as="targetPoint" />
          </mxGeometry>
        </mxCell>
        <mxCell id="L_stRkB2zpMGK9rm2e4r-2" style="rounded=0;orthogonalLoop=1;jettySize=auto;html=1;exitX=1;exitY=1;exitDx=0;exitDy=0;" edge="1" parent="1" source="L_stRkB2zpMGK9rm2e4r-3" target="L_stRkB2zpMGK9rm2e4r-6">
          <mxGeometry relative="1" as="geometry">
            <mxPoint x="430" y="450" as="targetPoint" />
          </mxGeometry>
        </mxCell>
        <mxCell id="L_stRkB2zpMGK9rm2e4r-3" value="Command" style="rounded=0;whiteSpace=wrap;html=1;" vertex="1" parent="1">
          <mxGeometry x="250" y="300" width="120" height="60" as="geometry" />
        </mxCell>
        <mxCell id="L_stRkB2zpMGK9rm2e4r-4" style="edgeStyle=orthogonalEdgeStyle;rounded=0;orthogonalLoop=1;jettySize=auto;html=1;exitX=0.5;exitY=1;exitDx=0;exitDy=0;entryX=0.5;entryY=0;entryDx=0;entryDy=0;" edge="1" parent="1" source="L_stRkB2zpMGK9rm2e4r-5" target="L_stRkB2zpMGK9rm2e4r-13">
          <mxGeometry relative="1" as="geometry" />
        </mxCell>
        <mxCell id="L_stRkB2zpMGK9rm2e4r-5" value="SQLCommand" style="rounded=0;whiteSpace=wrap;html=1;" vertex="1" parent="1">
          <mxGeometry x="110.00142857142856" y="440" width="120" height="60" as="geometry" />
        </mxCell>
        <mxCell id="L_stRkB2zpMGK9rm2e4r-6" value="NoSQLCommand" style="rounded=0;whiteSpace=wrap;html=1;" vertex="1" parent="1">
          <mxGeometry x="380" y="440" width="120" height="60" as="geometry" />
        </mxCell>
        <mxCell id="L_stRkB2zpMGK9rm2e4r-7" style="edgeStyle=orthogonalEdgeStyle;rounded=0;orthogonalLoop=1;jettySize=auto;html=1;exitX=0.5;exitY=1;exitDx=0;exitDy=0;entryX=0.5;entryY=0;entryDx=0;entryDy=0;" edge="1" parent="1" source="L_stRkB2zpMGK9rm2e4r-9" target="L_stRkB2zpMGK9rm2e4r-49">
          <mxGeometry relative="1" as="geometry" />
        </mxCell>
        <mxCell id="L_stRkB2zpMGK9rm2e4r-8" style="rounded=0;orthogonalLoop=1;jettySize=auto;html=1;exitX=1;exitY=1;exitDx=0;exitDy=0;entryX=0.5;entryY=0;entryDx=0;entryDy=0;" edge="1" parent="1" source="L_stRkB2zpMGK9rm2e4r-9" target="L_stRkB2zpMGK9rm2e4r-52">
          <mxGeometry relative="1" as="geometry" />
        </mxCell>
        <mxCell id="L_stRkB2zpMGK9rm2e4r-9" value="BaseCommand" style="swimlane;fontStyle=0;childLayout=stackLayout;horizontal=1;startSize=30;horizontalStack=0;resizeParent=1;resizeParentMax=0;resizeLast=0;collapsible=1;marginBottom=0;whiteSpace=wrap;html=1;" vertex="1" parent="1">
          <mxGeometry x="-220" y="645" width="140" height="60" as="geometry" />
        </mxCell>
        <mxCell id="L_stRkB2zpMGK9rm2e4r-10" style="rounded=0;orthogonalLoop=1;jettySize=auto;html=1;exitX=0;exitY=1;exitDx=0;exitDy=0;entryX=0.5;entryY=0;entryDx=0;entryDy=0;" edge="1" parent="1" source="L_stRkB2zpMGK9rm2e4r-9" target="L_stRkB2zpMGK9rm2e4r-41">
          <mxGeometry relative="1" as="geometry">
            <mxPoint x="-110" y="715" as="sourcePoint" />
            <mxPoint x="-375" y="800" as="targetPoint" />
          </mxGeometry>
        </mxCell>
        <mxCell id="L_stRkB2zpMGK9rm2e4r-11" style="rounded=0;orthogonalLoop=1;jettySize=auto;html=1;exitX=0;exitY=0.5;exitDx=0;exitDy=0;entryX=0.5;entryY=0;entryDx=0;entryDy=0;" edge="1" parent="1" source="L_stRkB2zpMGK9rm2e4r-13" target="L_stRkB2zpMGK9rm2e4r-9">
          <mxGeometry relative="1" as="geometry" />
        </mxCell>
        <mxCell id="L_stRkB2zpMGK9rm2e4r-12" style="rounded=0;orthogonalLoop=1;jettySize=auto;html=1;exitX=1;exitY=0.5;exitDx=0;exitDy=0;entryX=0.5;entryY=0;entryDx=0;entryDy=0;" edge="1" parent="1" source="L_stRkB2zpMGK9rm2e4r-13" target="L_stRkB2zpMGK9rm2e4r-19">
          <mxGeometry relative="1" as="geometry">
            <mxPoint x="420" y="660" as="targetPoint" />
          </mxGeometry>
        </mxCell>
        <mxCell id="L_stRkB2zpMGK9rm2e4r-13" value="MySQLCommand" style="swimlane;fontStyle=0;childLayout=stackLayout;horizontal=1;startSize=30;horizontalStack=0;resizeParent=1;resizeParentMax=0;resizeLast=0;collapsible=1;marginBottom=0;whiteSpace=wrap;html=1;" vertex="1" parent="1">
          <mxGeometry x="85" y="555" width="170" height="90" as="geometry" />
        </mxCell>
        <mxCell id="L_stRkB2zpMGK9rm2e4r-14" value="List&amp;lt;String&amp;gt;extractColumns()" style="text;strokeColor=none;fillColor=none;align=left;verticalAlign=middle;spacingLeft=4;spacingRight=4;overflow=hidden;points=[[0,0.5],[1,0.5]];portConstraint=eastwest;rotatable=0;whiteSpace=wrap;html=1;" vertex="1" parent="L_stRkB2zpMGK9rm2e4r-13">
          <mxGeometry y="30" width="170" height="30" as="geometry" />
        </mxCell>
        <mxCell id="L_stRkB2zpMGK9rm2e4r-15" value="buildStatement()" style="text;strokeColor=none;fillColor=none;align=left;verticalAlign=middle;spacingLeft=4;spacingRight=4;overflow=hidden;points=[[0,0.5],[1,0.5]];portConstraint=eastwest;rotatable=0;whiteSpace=wrap;html=1;" vertex="1" parent="L_stRkB2zpMGK9rm2e4r-13">
          <mxGeometry y="60" width="170" height="30" as="geometry" />
        </mxCell>
        <mxCell id="L_stRkB2zpMGK9rm2e4r-16" style="rounded=0;orthogonalLoop=1;jettySize=auto;html=1;exitX=0;exitY=1;exitDx=0;exitDy=0;entryX=0.5;entryY=0;entryDx=0;entryDy=0;" edge="1" parent="1" source="L_stRkB2zpMGK9rm2e4r-19" target="L_stRkB2zpMGK9rm2e4r-55">
          <mxGeometry relative="1" as="geometry">
            <mxPoint x="272.727272727273" y="800" as="targetPoint" />
          </mxGeometry>
        </mxCell>
        <mxCell id="L_stRkB2zpMGK9rm2e4r-17" style="edgeStyle=orthogonalEdgeStyle;rounded=0;orthogonalLoop=1;jettySize=auto;html=1;exitX=0.5;exitY=1;exitDx=0;exitDy=0;entryX=0.5;entryY=0;entryDx=0;entryDy=0;" edge="1" parent="1" source="L_stRkB2zpMGK9rm2e4r-19" target="L_stRkB2zpMGK9rm2e4r-58">
          <mxGeometry relative="1" as="geometry">
            <mxPoint x="420.0600000000004" y="798.98" as="targetPoint" />
          </mxGeometry>
        </mxCell>
        <mxCell id="L_stRkB2zpMGK9rm2e4r-18" style="rounded=0;orthogonalLoop=1;jettySize=auto;html=1;exitX=1;exitY=1;exitDx=0;exitDy=0;entryX=0.5;entryY=0;entryDx=0;entryDy=0;" edge="1" parent="1" source="L_stRkB2zpMGK9rm2e4r-19" target="L_stRkB2zpMGK9rm2e4r-61">
          <mxGeometry relative="1" as="geometry">
            <mxPoint x="610" y="800" as="targetPoint" />
          </mxGeometry>
        </mxCell>
        <mxCell id="L_stRkB2zpMGK9rm2e4r-19" value="CommandDecorator" style="swimlane;fontStyle=0;childLayout=stackLayout;horizontal=1;startSize=30;horizontalStack=0;resizeParent=1;resizeParentMax=0;resizeLast=0;collapsible=1;marginBottom=0;whiteSpace=wrap;html=1;" vertex="1" parent="1">
          <mxGeometry x="350" y="660" width="140" height="60" as="geometry" />
        </mxCell>
        <mxCell id="L_stRkB2zpMGK9rm2e4r-20" style="edgeStyle=orthogonalEdgeStyle;rounded=0;orthogonalLoop=1;jettySize=auto;html=1;exitX=0.5;exitY=0;exitDx=0;exitDy=0;" edge="1" parent="1" source="L_stRkB2zpMGK9rm2e4r-22" target="L_stRkB2zpMGK9rm2e4r-27">
          <mxGeometry relative="1" as="geometry">
            <mxPoint x="-825" y="250" as="targetPoint" />
          </mxGeometry>
        </mxCell>
        <mxCell id="L_stRkB2zpMGK9rm2e4r-21" style="edgeStyle=orthogonalEdgeStyle;rounded=0;orthogonalLoop=1;jettySize=auto;html=1;exitX=0;exitY=0.25;exitDx=0;exitDy=0;" edge="1" parent="1" source="L_stRkB2zpMGK9rm2e4r-22" target="L_stRkB2zpMGK9rm2e4r-36">
          <mxGeometry relative="1" as="geometry">
            <mxPoint x="-1190" y="520" as="targetPoint" />
          </mxGeometry>
        </mxCell>
        <mxCell id="L_stRkB2zpMGK9rm2e4r-22" value="Statement&amp;lt;C,R&amp;gt;" style="swimlane;fontStyle=0;childLayout=stackLayout;horizontal=1;startSize=30;horizontalStack=0;resizeParent=1;resizeParentMax=0;resizeLast=0;collapsible=1;marginBottom=0;whiteSpace=wrap;html=1;" vertex="1" parent="1">
          <mxGeometry x="-940" y="380" width="230" height="120" as="geometry" />
        </mxCell>
        <mxCell id="L_stRkB2zpMGK9rm2e4r-23" value="boolean validate" style="text;strokeColor=none;fillColor=none;align=left;verticalAlign=middle;spacingLeft=4;spacingRight=4;overflow=hidden;points=[[0,0.5],[1,0.5]];portConstraint=eastwest;rotatable=0;whiteSpace=wrap;html=1;" vertex="1" parent="L_stRkB2zpMGK9rm2e4r-22">
          <mxGeometry y="30" width="230" height="30" as="geometry" />
        </mxCell>
        <mxCell id="L_stRkB2zpMGK9rm2e4r-24" value="buildCriiteria" style="text;strokeColor=none;fillColor=none;align=left;verticalAlign=middle;spacingLeft=4;spacingRight=4;overflow=hidden;points=[[0,0.5],[1,0.5]];portConstraint=eastwest;rotatable=0;whiteSpace=wrap;html=1;" vertex="1" parent="L_stRkB2zpMGK9rm2e4r-22">
          <mxGeometry y="60" width="230" height="30" as="geometry" />
        </mxCell>
        <mxCell id="L_stRkB2zpMGK9rm2e4r-25" value="StatementResult execute" style="text;strokeColor=none;fillColor=none;align=left;verticalAlign=middle;spacingLeft=4;spacingRight=4;overflow=hidden;points=[[0,0.5],[1,0.5]];portConstraint=eastwest;rotatable=0;whiteSpace=wrap;html=1;" vertex="1" parent="L_stRkB2zpMGK9rm2e4r-22">
          <mxGeometry y="90" width="230" height="30" as="geometry" />
        </mxCell>
        <mxCell id="L_stRkB2zpMGK9rm2e4r-26" style="edgeStyle=orthogonalEdgeStyle;rounded=0;orthogonalLoop=1;jettySize=auto;html=1;exitX=0.5;exitY=0;exitDx=0;exitDy=0;dashed=1;" edge="1" parent="1" source="L_stRkB2zpMGK9rm2e4r-27" target="L_stRkB2zpMGK9rm2e4r-46">
          <mxGeometry relative="1" as="geometry">
            <mxPoint x="-825" y="70" as="targetPoint" />
          </mxGeometry>
        </mxCell>
        <mxCell id="L_stRkB2zpMGK9rm2e4r-27" value="TableConstraint" style="swimlane;fontStyle=0;childLayout=stackLayout;horizontal=1;startSize=30;horizontalStack=0;resizeParent=1;resizeParentMax=0;resizeLast=0;collapsible=1;marginBottom=0;whiteSpace=wrap;html=1;" vertex="1" parent="1">
          <mxGeometry x="-932.5" y="130" width="215" height="120" as="geometry" />
        </mxCell>
        <mxCell id="L_stRkB2zpMGK9rm2e4r-28" value="validateFields(List&amp;lt;String&amp;gt; fields)" style="text;strokeColor=none;fillColor=none;align=left;verticalAlign=middle;spacingLeft=4;spacingRight=4;overflow=hidden;points=[[0,0.5],[1,0.5]];portConstraint=eastwest;rotatable=0;whiteSpace=wrap;html=1;" vertex="1" parent="L_stRkB2zpMGK9rm2e4r-27">
          <mxGeometry y="30" width="215" height="30" as="geometry" />
        </mxCell>
        <mxCell id="L_stRkB2zpMGK9rm2e4r-29" value="private&amp;nbsp;TableConstraint()" style="text;strokeColor=none;fillColor=none;align=left;verticalAlign=middle;spacingLeft=4;spacingRight=4;overflow=hidden;points=[[0,0.5],[1,0.5]];portConstraint=eastwest;rotatable=0;whiteSpace=wrap;html=1;" vertex="1" parent="L_stRkB2zpMGK9rm2e4r-27">
          <mxGeometry y="60" width="215" height="30" as="geometry" />
        </mxCell>
        <mxCell id="L_stRkB2zpMGK9rm2e4r-30" value="public static TableConstraint getInstance()" style="text;strokeColor=none;fillColor=none;align=left;verticalAlign=middle;spacingLeft=4;spacingRight=4;overflow=hidden;points=[[0,0.5],[1,0.5]];portConstraint=eastwest;rotatable=0;whiteSpace=wrap;html=1;" vertex="1" parent="L_stRkB2zpMGK9rm2e4r-27">
          <mxGeometry y="90" width="215" height="30" as="geometry" />
        </mxCell>
        <mxCell id="L_stRkB2zpMGK9rm2e4r-31" value="SelectStatement&amp;lt;CriteriaQuery, C&amp;gt;" style="swimlane;fontStyle=0;childLayout=stackLayout;horizontal=1;startSize=30;horizontalStack=0;resizeParent=1;resizeParentMax=0;resizeLast=0;collapsible=1;marginBottom=0;whiteSpace=wrap;html=1;" vertex="1" parent="1">
          <mxGeometry x="-1690" y="760" width="290" height="60" as="geometry" />
        </mxCell>
        <mxCell id="L_stRkB2zpMGK9rm2e4r-32" value="UpdateStatement&amp;lt;CriteriaUpdate, C&amp;gt;" style="swimlane;fontStyle=0;childLayout=stackLayout;horizontal=1;startSize=30;horizontalStack=0;resizeParent=1;resizeParentMax=0;resizeLast=0;collapsible=1;marginBottom=0;whiteSpace=wrap;html=1;" vertex="1" parent="1">
          <mxGeometry x="-1297.5" y="760" width="315" height="60" as="geometry" />
        </mxCell>
        <mxCell id="L_stRkB2zpMGK9rm2e4r-33" value="void setSetCommand(SetCommand)" style="text;strokeColor=none;fillColor=none;align=left;verticalAlign=middle;spacingLeft=4;spacingRight=4;overflow=hidden;points=[[0,0.5],[1,0.5]];portConstraint=eastwest;rotatable=0;whiteSpace=wrap;html=1;" vertex="1" parent="L_stRkB2zpMGK9rm2e4r-32">
          <mxGeometry y="30" width="315" height="30" as="geometry" />
        </mxCell>
        <mxCell id="L_stRkB2zpMGK9rm2e4r-34" value="DeleteStatement&amp;lt;CriteriaDelete, c&amp;gt;" style="swimlane;fontStyle=0;childLayout=stackLayout;horizontal=1;startSize=30;horizontalStack=0;resizeParent=1;resizeParentMax=0;resizeLast=0;collapsible=1;marginBottom=0;whiteSpace=wrap;html=1;" vertex="1" parent="1">
          <mxGeometry x="-890" y="760" width="270" height="60" as="geometry" />
        </mxCell>
        <mxCell id="L_stRkB2zpMGK9rm2e4r-35" style="edgeStyle=orthogonalEdgeStyle;rounded=0;orthogonalLoop=1;jettySize=auto;html=1;entryX=0.5;entryY=0;entryDx=0;entryDy=0;" edge="1" parent="1" source="L_stRkB2zpMGK9rm2e4r-36" target="L_stRkB2zpMGK9rm2e4r-32">
          <mxGeometry relative="1" as="geometry" />
        </mxCell>
        <mxCell id="L_stRkB2zpMGK9rm2e4r-36" value="SQLStatement" style="swimlane;fontStyle=0;childLayout=stackLayout;horizontal=1;startSize=30;horizontalStack=0;resizeParent=1;resizeParentMax=0;resizeLast=0;collapsible=1;marginBottom=0;whiteSpace=wrap;html=1;" vertex="1" parent="1">
          <mxGeometry x="-1285" y="540" width="290" height="150" as="geometry" />
        </mxCell>
        <mxCell id="L_stRkB2zpMGK9rm2e4r-37" value="public SQLStatement()" style="text;strokeColor=none;fillColor=none;align=left;verticalAlign=middle;spacingLeft=4;spacingRight=4;overflow=hidden;points=[[0,0.5],[1,0.5]];portConstraint=eastwest;rotatable=0;whiteSpace=wrap;html=1;" vertex="1" parent="L_stRkB2zpMGK9rm2e4r-36">
          <mxGeometry y="30" width="290" height="30" as="geometry" />
        </mxCell>
        <mxCell id="L_stRkB2zpMGK9rm2e4r-38" value="void setWhereCommand(WhereCommand)" style="text;strokeColor=none;fillColor=none;align=left;verticalAlign=middle;spacingLeft=4;spacingRight=4;overflow=hidden;points=[[0,0.5],[1,0.5]];portConstraint=eastwest;rotatable=0;whiteSpace=wrap;html=1;" vertex="1" parent="L_stRkB2zpMGK9rm2e4r-36">
          <mxGeometry y="60" width="290" height="30" as="geometry" />
        </mxCell>
        <mxCell id="L_stRkB2zpMGK9rm2e4r-39" value="void setBaseCommand(BaseCommand baseCommand)" style="text;strokeColor=none;fillColor=none;align=left;verticalAlign=middle;spacingLeft=4;spacingRight=4;overflow=hidden;points=[[0,0.5],[1,0.5]];portConstraint=eastwest;rotatable=0;whiteSpace=wrap;html=1;" vertex="1" parent="L_stRkB2zpMGK9rm2e4r-36">
          <mxGeometry y="90" width="290" height="30" as="geometry" />
        </mxCell>
        <mxCell id="L_stRkB2zpMGK9rm2e4r-40" value="addFields()" style="text;strokeColor=none;fillColor=none;align=left;verticalAlign=middle;spacingLeft=4;spacingRight=4;overflow=hidden;points=[[0,0.5],[1,0.5]];portConstraint=eastwest;rotatable=0;whiteSpace=wrap;html=1;" vertex="1" parent="L_stRkB2zpMGK9rm2e4r-36">
          <mxGeometry y="120" width="290" height="30" as="geometry" />
        </mxCell>
        <mxCell id="L_stRkB2zpMGK9rm2e4r-41" value="SelectCommand" style="swimlane;fontStyle=0;childLayout=stackLayout;horizontal=1;startSize=30;horizontalStack=0;resizeParent=1;resizeParentMax=0;resizeLast=0;collapsible=1;marginBottom=0;whiteSpace=wrap;html=1;" vertex="1" parent="1">
          <mxGeometry x="-413" y="800" width="140" height="90" as="geometry" />
        </mxCell>
        <mxCell id="L_stRkB2zpMGK9rm2e4r-42" value="SelectStatement" style="text;strokeColor=none;fillColor=none;align=left;verticalAlign=middle;spacingLeft=4;spacingRight=4;overflow=hidden;points=[[0,0.5],[1,0.5]];portConstraint=eastwest;rotatable=0;whiteSpace=wrap;html=1;" vertex="1" parent="L_stRkB2zpMGK9rm2e4r-41">
          <mxGeometry y="30" width="140" height="30" as="geometry" />
        </mxCell>
        <mxCell id="L_stRkB2zpMGK9rm2e4r-43" value="buildStatement()" style="text;strokeColor=none;fillColor=none;align=left;verticalAlign=middle;spacingLeft=4;spacingRight=4;overflow=hidden;points=[[0,0.5],[1,0.5]];portConstraint=eastwest;rotatable=0;whiteSpace=wrap;html=1;" vertex="1" parent="L_stRkB2zpMGK9rm2e4r-41">
          <mxGeometry y="60" width="140" height="30" as="geometry" />
        </mxCell>
        <mxCell id="L_stRkB2zpMGK9rm2e4r-44" value="&lt;b&gt;statement.setBaseCommand()&lt;/b&gt;" style="text;html=1;strokeColor=none;fillColor=none;align=center;verticalAlign=middle;whiteSpace=wrap;rounded=0;" vertex="1" parent="1">
          <mxGeometry x="-750" y="610" width="200" height="30" as="geometry" />
        </mxCell>
        <mxCell id="L_stRkB2zpMGK9rm2e4r-45" style="edgeStyle=orthogonalEdgeStyle;rounded=0;orthogonalLoop=1;jettySize=auto;html=1;exitX=0;exitY=0.5;exitDx=0;exitDy=0;entryX=1.014;entryY=0.3;entryDx=0;entryDy=0;entryPerimeter=0;dashed=1;" edge="1" parent="1" source="L_stRkB2zpMGK9rm2e4r-43" target="L_stRkB2zpMGK9rm2e4r-39">
          <mxGeometry relative="1" as="geometry">
            <Array as="points">
              <mxPoint x="-550" y="875" />
              <mxPoint x="-550" y="639" />
            </Array>
          </mxGeometry>
        </mxCell>
        <mxCell id="L_stRkB2zpMGK9rm2e4r-46" value="Singleton" style="rounded=0;whiteSpace=wrap;html=1;" vertex="1" parent="1">
          <mxGeometry x="-885" width="120" height="60" as="geometry" />
        </mxCell>
        <mxCell id="L_stRkB2zpMGK9rm2e4r-47" style="edgeStyle=orthogonalEdgeStyle;rounded=0;orthogonalLoop=1;jettySize=auto;html=1;" edge="1" parent="1" source="L_stRkB2zpMGK9rm2e4r-40" target="L_stRkB2zpMGK9rm2e4r-34">
          <mxGeometry relative="1" as="geometry" />
        </mxCell>
        <mxCell id="L_stRkB2zpMGK9rm2e4r-48" style="edgeStyle=orthogonalEdgeStyle;rounded=0;orthogonalLoop=1;jettySize=auto;html=1;exitX=0;exitY=0.5;exitDx=0;exitDy=0;entryX=0.5;entryY=0;entryDx=0;entryDy=0;" edge="1" parent="1" source="L_stRkB2zpMGK9rm2e4r-40" target="L_stRkB2zpMGK9rm2e4r-31">
          <mxGeometry relative="1" as="geometry" />
        </mxCell>
        <mxCell id="L_stRkB2zpMGK9rm2e4r-49" value="UpdateCommand" style="swimlane;fontStyle=0;childLayout=stackLayout;horizontal=1;startSize=30;horizontalStack=0;resizeParent=1;resizeParentMax=0;resizeLast=0;collapsible=1;marginBottom=0;whiteSpace=wrap;html=1;" vertex="1" parent="1">
          <mxGeometry x="-220" y="800" width="140" height="90" as="geometry" />
        </mxCell>
        <mxCell id="L_stRkB2zpMGK9rm2e4r-50" value="UpdateStatement" style="text;strokeColor=none;fillColor=none;align=left;verticalAlign=middle;spacingLeft=4;spacingRight=4;overflow=hidden;points=[[0,0.5],[1,0.5]];portConstraint=eastwest;rotatable=0;whiteSpace=wrap;html=1;" vertex="1" parent="L_stRkB2zpMGK9rm2e4r-49">
          <mxGeometry y="30" width="140" height="30" as="geometry" />
        </mxCell>
        <mxCell id="L_stRkB2zpMGK9rm2e4r-51" value="buildStatement()" style="text;strokeColor=none;fillColor=none;align=left;verticalAlign=middle;spacingLeft=4;spacingRight=4;overflow=hidden;points=[[0,0.5],[1,0.5]];portConstraint=eastwest;rotatable=0;whiteSpace=wrap;html=1;" vertex="1" parent="L_stRkB2zpMGK9rm2e4r-49">
          <mxGeometry y="60" width="140" height="30" as="geometry" />
        </mxCell>
        <mxCell id="L_stRkB2zpMGK9rm2e4r-52" value="DeleteCommand" style="swimlane;fontStyle=0;childLayout=stackLayout;horizontal=1;startSize=30;horizontalStack=0;resizeParent=1;resizeParentMax=0;resizeLast=0;collapsible=1;marginBottom=0;whiteSpace=wrap;html=1;" vertex="1" parent="1">
          <mxGeometry x="-50" y="800" width="140" height="90" as="geometry" />
        </mxCell>
        <mxCell id="L_stRkB2zpMGK9rm2e4r-53" value="DeleteStatement" style="text;strokeColor=none;fillColor=none;align=left;verticalAlign=middle;spacingLeft=4;spacingRight=4;overflow=hidden;points=[[0,0.5],[1,0.5]];portConstraint=eastwest;rotatable=0;whiteSpace=wrap;html=1;" vertex="1" parent="L_stRkB2zpMGK9rm2e4r-52">
          <mxGeometry y="30" width="140" height="30" as="geometry" />
        </mxCell>
        <mxCell id="L_stRkB2zpMGK9rm2e4r-54" value="buildStatement()" style="text;strokeColor=none;fillColor=none;align=left;verticalAlign=middle;spacingLeft=4;spacingRight=4;overflow=hidden;points=[[0,0.5],[1,0.5]];portConstraint=eastwest;rotatable=0;whiteSpace=wrap;html=1;" vertex="1" parent="L_stRkB2zpMGK9rm2e4r-52">
          <mxGeometry y="60" width="140" height="30" as="geometry" />
        </mxCell>
        <mxCell id="L_stRkB2zpMGK9rm2e4r-55" value="GroupByCommand" style="swimlane;fontStyle=0;childLayout=stackLayout;horizontal=1;startSize=30;horizontalStack=0;resizeParent=1;resizeParentMax=0;resizeLast=0;collapsible=1;marginBottom=0;whiteSpace=wrap;html=1;" vertex="1" parent="1">
          <mxGeometry x="180" y="800" width="140" height="90" as="geometry" />
        </mxCell>
        <mxCell id="L_stRkB2zpMGK9rm2e4r-56" value="SelectStatement" style="text;strokeColor=none;fillColor=none;align=left;verticalAlign=middle;spacingLeft=4;spacingRight=4;overflow=hidden;points=[[0,0.5],[1,0.5]];portConstraint=eastwest;rotatable=0;whiteSpace=wrap;html=1;" vertex="1" parent="L_stRkB2zpMGK9rm2e4r-55">
          <mxGeometry y="30" width="140" height="30" as="geometry" />
        </mxCell>
        <mxCell id="L_stRkB2zpMGK9rm2e4r-57" value="buildStatement()" style="text;strokeColor=none;fillColor=none;align=left;verticalAlign=middle;spacingLeft=4;spacingRight=4;overflow=hidden;points=[[0,0.5],[1,0.5]];portConstraint=eastwest;rotatable=0;whiteSpace=wrap;html=1;" vertex="1" parent="L_stRkB2zpMGK9rm2e4r-55">
          <mxGeometry y="60" width="140" height="30" as="geometry" />
        </mxCell>
        <mxCell id="L_stRkB2zpMGK9rm2e4r-58" value="WhereStatement" style="swimlane;fontStyle=0;childLayout=stackLayout;horizontal=1;startSize=30;horizontalStack=0;resizeParent=1;resizeParentMax=0;resizeLast=0;collapsible=1;marginBottom=0;whiteSpace=wrap;html=1;" vertex="1" parent="1">
          <mxGeometry x="350" y="800" width="140" height="90" as="geometry" />
        </mxCell>
        <mxCell id="L_stRkB2zpMGK9rm2e4r-59" value="SQLStatement" style="text;strokeColor=none;fillColor=none;align=left;verticalAlign=middle;spacingLeft=4;spacingRight=4;overflow=hidden;points=[[0,0.5],[1,0.5]];portConstraint=eastwest;rotatable=0;whiteSpace=wrap;html=1;" vertex="1" parent="L_stRkB2zpMGK9rm2e4r-58">
          <mxGeometry y="30" width="140" height="30" as="geometry" />
        </mxCell>
        <mxCell id="L_stRkB2zpMGK9rm2e4r-60" value="buildStatement()" style="text;strokeColor=none;fillColor=none;align=left;verticalAlign=middle;spacingLeft=4;spacingRight=4;overflow=hidden;points=[[0,0.5],[1,0.5]];portConstraint=eastwest;rotatable=0;whiteSpace=wrap;html=1;" vertex="1" parent="L_stRkB2zpMGK9rm2e4r-58">
          <mxGeometry y="60" width="140" height="30" as="geometry" />
        </mxCell>
        <mxCell id="L_stRkB2zpMGK9rm2e4r-61" value="GroupByCommand" style="swimlane;fontStyle=0;childLayout=stackLayout;horizontal=1;startSize=30;horizontalStack=0;resizeParent=1;resizeParentMax=0;resizeLast=0;collapsible=1;marginBottom=0;whiteSpace=wrap;html=1;" vertex="1" parent="1">
          <mxGeometry x="530" y="800" width="140" height="90" as="geometry" />
        </mxCell>
        <mxCell id="L_stRkB2zpMGK9rm2e4r-62" value="SelectStatement" style="text;strokeColor=none;fillColor=none;align=left;verticalAlign=middle;spacingLeft=4;spacingRight=4;overflow=hidden;points=[[0,0.5],[1,0.5]];portConstraint=eastwest;rotatable=0;whiteSpace=wrap;html=1;" vertex="1" parent="L_stRkB2zpMGK9rm2e4r-61">
          <mxGeometry y="30" width="140" height="30" as="geometry" />
        </mxCell>
        <mxCell id="L_stRkB2zpMGK9rm2e4r-63" value="buildStatement()" style="text;strokeColor=none;fillColor=none;align=left;verticalAlign=middle;spacingLeft=4;spacingRight=4;overflow=hidden;points=[[0,0.5],[1,0.5]];portConstraint=eastwest;rotatable=0;whiteSpace=wrap;html=1;" vertex="1" parent="L_stRkB2zpMGK9rm2e4r-61">
          <mxGeometry y="60" width="140" height="30" as="geometry" />
        </mxCell>
        <mxCell id="L_stRkB2zpMGK9rm2e4r-64" value="StatementResult&amp;lt;R&amp;gt;" style="swimlane;fontStyle=0;childLayout=stackLayout;horizontal=1;startSize=30;horizontalStack=0;resizeParent=1;resizeParentMax=0;resizeLast=0;collapsible=1;marginBottom=0;whiteSpace=wrap;html=1;" vertex="1" parent="1">
          <mxGeometry x="-960" y="990" width="230" height="60" as="geometry" />
        </mxCell>
        <mxCell id="L_stRkB2zpMGK9rm2e4r-65" value="R getResult()" style="text;strokeColor=none;fillColor=none;align=left;verticalAlign=middle;spacingLeft=4;spacingRight=4;overflow=hidden;points=[[0,0.5],[1,0.5]];portConstraint=eastwest;rotatable=0;whiteSpace=wrap;html=1;" vertex="1" parent="L_stRkB2zpMGK9rm2e4r-64">
          <mxGeometry y="30" width="230" height="30" as="geometry" />
        </mxCell>
      </root>
    </mxGraphModel>
  </diagram>
</mxfile>
